# xmcd
#
# Track frame offsets:
#	150
#	4585
#	24465
#	42785
#	59232
#	79072
#	95825
#	106625
#	119372
#	136665
#	155455
#	176045
#	194907
#	209502
#	224325
#	238910
#	254830
#
# Disc length: 3470 seconds
#
# Revision: 0
# Processed by: cddbd v1.5.2PL0 Copyright (c) Steve Scherf et al.
# Submitted via: dBpowerAMP V4.0
#
DISCID=fc0d8c11
DTITLE=Acordeones De La Esperanza - Polkas y Huapangos - Acordeones De La Esperanza - Polkas y Huapangos
DYEAR=2007
DGENRE=Tejano
TTITLE0=01 - Introduccion
TTITLE1=02 - Pee Wee's Polka - Jose Javier J.J. Gonzalez
TTITLE2=03 - Pico De Gallo - Los Palominos
TTITLE3=04 - Polkapango - Jaime y Los Chamacos
TTITLE4=05 - Sugar Bear Polka - Hometown Boys
TTITLE5=06 - El Pajuelazo - Joel Guzman
TTITLE6=07 - Las Chipiringas - Badd Boyz Del Valle
TTITLE7=08 - Que Viva Santa Rosa - Siggno
TTITLE8=09 - Baby Ruben's Polka - Frijoles Romanticos
TTITLE9=10 - Redoblando - Los Dos Gilbertos
TTITLE10=11 - Polkitas Pa' David - Benny Layton
TTITLE11=12 - Polka Mafiosa - La Mafia
TTITLE12=13 - El Zapatero - David Lee Garza
TTITLE13=14 - Polkitas De Homero - Homero Esquivel
TTITLE14=15 - Noble Esperanza - Fidencio Ayala
TTITLE15=16 - Yo Seguire - Jesse Turner and Charlie Corona
TTITLE16=17 - Agradecimientos - Arianita and Victor - Musica Por Estruendo
EXTD=
EXTT0=
EXTT1=
EXTT2=
EXTT3=
EXTT4=
EXTT5=
EXTT6=
EXTT7=
EXTT8=
EXTT9=
EXTT10=
EXTT11=
EXTT12=
EXTT13=
EXTT14=
EXTT15=
EXTT16=
PLAYORDER=
